<svg width="73" height="71" viewBox="0 0 73 71" fill="none" xmlns="http://www.w3.org/2000/svg">
<path fill-rule="evenodd" clip-rule="evenodd" d="M0 35.3527C0 54.8779 16.3411 70.7053 36.5 70.7053C56.659 70.7053 73 54.8779 73 35.3527C73 15.8274 56.659 0 36.5 0C16.3411 0 0 15.8274 0 35.3527ZM30.7316 22.4426C30.9953 22.4552 31.2506 22.5368 31.4703 22.6787H31.4667L49.2787 34.1754C49.4789 34.3045 49.6431 34.4795 49.7567 34.6849C49.8703 34.8903 49.9298 35.1197 49.9298 35.3527C49.9298 35.5857 49.8703 35.815 49.7567 36.0204C49.6431 36.2258 49.4789 36.4008 49.2787 36.5299L31.4703 48.0266C31.2506 48.1685 30.9953 48.2501 30.7316 48.2627C30.4678 48.2752 30.2055 48.2182 29.9725 48.0978C29.7395 47.9773 29.5447 47.798 29.4086 47.5787C29.2726 47.3595 29.2005 47.1087 29.2 46.8529V23.8524C29.2005 23.5967 29.2726 23.3458 29.4086 23.1266C29.5447 22.9074 29.7395 22.728 29.9725 22.6075C30.2055 22.4871 30.4678 22.4301 30.7316 22.4426ZM36.2719 53.029C46.4771 53.029 54.75 45.0161 54.75 35.1317C54.75 25.2473 46.4771 17.2344 36.2719 17.2344C26.0667 17.2344 17.7938 25.2473 17.7938 35.1317C17.7938 45.0161 26.0667 53.029 36.2719 53.029Z" fill="#E0B51A" fill-opacity="0.97"/>
</svg>
