<svg width="38" height="36" viewBox="0 0 38 36" fill="none" xmlns="http://www.w3.org/2000/svg">
<path d="M37.6314 32.5651C37.6315 33.1044 37.4777 33.6333 37.1868 34.0941C36.8959 34.5549 36.4791 34.9298 35.9818 35.1779C35.4846 35.4259 34.9262 35.5376 34.3675 35.5007C33.8089 35.4637 33.2715 35.2796 32.8141 34.9685L11.0251 20.1571C10.6254 19.8855 10.2994 19.5254 10.0743 19.1072C9.84928 18.689 9.73181 18.2248 9.73181 17.7538C9.73181 17.2827 9.84928 16.8186 10.0743 16.4004C10.2994 15.9821 10.6254 15.6221 11.0251 15.3504L32.8141 0.539081C33.2715 0.227927 33.8089 0.0438289 34.3675 0.00690493C34.9262 -0.0300191 35.4846 0.0816523 35.9818 0.329715C36.4791 0.577778 36.8959 0.952685 37.1868 1.41347C37.4777 1.87425 37.6315 2.40317 37.6314 2.94243V32.5651Z" fill="#A0A0A0"/>
<path d="M0.974976 33.1983C0.974976 33.7835 1.21635 34.3446 1.646 34.7584C2.07565 35.1722 2.65838 35.4046 3.26599 35.4046C3.87361 35.4046 4.45634 35.1722 4.88598 34.7584C5.31563 34.3446 5.55701 33.7835 5.55701 33.1983V2.31063C5.55701 1.7255 5.31563 1.16432 4.88598 0.75057C4.45634 0.336815 3.87361 0.10437 3.26599 0.10437C2.65838 0.10437 2.07565 0.336815 1.646 0.75057C1.21635 1.16432 0.974976 1.7255 0.974976 2.31063V33.1983Z" fill="#A0A0A0"/>
</svg>
