<svg width="37" height="37" viewBox="0 0 37 37" fill="none" xmlns="http://www.w3.org/2000/svg">
<path d="M15.0312 22.5469V24.8594H23.125V22.5469H20.2344V12.7188H17.9219V14.4531H15.6094V16.7656H17.9219V22.5469H15.0312Z" fill="#A0A0A0"/>
<path d="M33.5313 15.2127V19.0781C33.5289 21.224 32.6753 23.2812 31.158 24.7986C29.6406 26.3159 27.5834 27.1694 25.4375 27.1719H5.68206L8.91132 23.9425L7.27624 22.3075L4.04691 25.5367L3.72785 25.8557L1.30219 28.2814L6.65143 34.2994L8.37988 32.7631L5.46548 29.4844H25.4375C31.1754 29.4844 35.8438 24.816 35.8438 19.0781V12.9002L33.5313 15.2127Z" fill="#A0A0A0"/>
<path d="M3.46875 18.5C3.47118 16.3541 4.32469 14.2969 5.84204 12.7795C7.35938 11.2622 9.41665 10.4087 11.5625 10.4062H31.318L28.0887 13.6356L29.7238 15.2707L32.9531 12.0414L33.2506 11.744L35.6978 9.29668L30.3486 3.27869L28.6201 4.81505L31.5345 8.09374H11.5625C5.82461 8.09374 1.15625 12.7621 1.15625 18.5V24.6994L3.46875 22.3869V18.5Z" fill="#A0A0A0"/>
</svg>
