<svg width="39" height="37" viewBox="0 0 39 37" fill="none" xmlns="http://www.w3.org/2000/svg">
<path d="M13.7856 18.541V18.9406L27.6515 25.4939C28.884 24.4816 30.3406 23.9754 32.0213 23.9754C33.9261 23.9754 35.5368 24.6014 36.8534 25.8535C38.1699 27.1055 38.8282 28.6373 38.8282 30.4488C38.8282 32.2603 38.1699 33.792 36.8534 35.0441C35.5368 36.2961 33.9261 36.9221 32.0213 36.9221C30.1165 36.9221 28.5058 36.2961 27.1893 35.0441C25.8727 33.792 25.2144 32.2603 25.2144 30.4488V30.0492L11.3485 23.4959C10.116 24.5082 8.65937 25.0144 6.97865 25.0144C5.07384 25.0144 3.46315 24.3883 2.14659 23.1363C0.830033 21.8842 0.171753 20.3525 0.171753 18.541C0.171753 16.7295 0.830033 15.1978 2.14659 13.9457C3.46315 12.6937 5.07384 12.0676 6.97865 12.0676C8.65937 12.0676 10.116 12.5738 11.3485 13.5861L25.2144 7.0328V6.63321C25.2144 4.82174 25.8727 3.28997 27.1893 2.03792C28.5058 0.785876 30.1165 0.159851 32.0213 0.159851C33.9261 0.159851 35.5368 0.785876 36.8534 2.03792C38.1699 3.28997 38.8282 4.82174 38.8282 6.63321C38.8282 8.44469 38.1699 9.97645 36.8534 11.2285C35.5368 12.4805 33.9261 13.1066 32.0213 13.1066C30.3406 13.1066 28.884 12.6004 27.6515 11.5881L13.7856 18.1414V18.541Z" fill="#A0A0A0"/>
</svg>
