<svg width="50" height="50" viewBox="0 0 50 50" fill="none" xmlns="http://www.w3.org/2000/svg">
<path d="M42.5 9.375C42.5 8.87772 42.3025 8.40081 41.9508 8.04917C41.5992 7.69754 41.1223 7.5 40.625 7.5C40.1277 7.5 39.6508 7.69754 39.2992 8.04917C38.9475 8.40081 38.75 8.87772 38.75 9.375V40.625C38.75 41.1223 38.9475 41.5992 39.2992 41.9508C39.6508 42.3025 40.1277 42.5 40.625 42.5C41.1223 42.5 41.5992 42.3025 41.9508 41.9508C42.3025 41.5992 42.5 41.1223 42.5 40.625V9.375Z" fill="#A0A0A0"/>
<path d="M7.5 11.0025C7.50014 10.437 7.65371 9.88219 7.94434 9.39713C8.23496 8.91207 8.65175 8.51496 9.15029 8.24811C9.64883 7.98127 10.2104 7.85469 10.7752 7.88188C11.34 7.90906 11.8869 8.08899 12.3575 8.40248L33.3525 22.4C33.7805 22.6854 34.1314 23.072 34.3741 23.5256C34.6168 23.9791 34.7438 24.4856 34.7438 25C34.7438 25.5144 34.6168 26.0209 34.3741 26.4744C34.1314 26.928 33.7805 27.3146 33.3525 27.6L12.3575 41.6C11.8867 41.9136 11.3396 42.0935 10.7746 42.1206C10.2096 42.1477 9.64781 42.0209 9.14919 41.7538C8.65057 41.4866 8.23382 41.0891 7.94337 40.6037C7.65293 40.1183 7.49969 39.5632 7.5 38.9975V11V11.0025Z" fill="#A0A0A0"/>
</svg>
