<svg width="102" height="101" viewBox="0 0 102 101" fill="none" xmlns="http://www.w3.org/2000/svg">
<path d="M46.75 25.25V44.5663H37.0175C35.105 44.5663 34.17 46.8387 35.53 48.1433L49.5125 61.9887C50.3625 62.8304 51.68 62.8304 52.53 61.9887L66.5125 48.1433C66.8037 47.8492 67.0014 47.477 67.0809 47.0727C67.1605 46.6684 67.1185 46.2499 66.9601 45.8691C66.8017 45.4882 66.5339 45.1617 66.19 44.9302C65.846 44.6986 65.4409 44.572 65.025 44.5663H55.25V25.25C55.25 22.9354 53.3375 21.0417 51 21.0417C48.6625 21.0417 46.75 22.9354 46.75 25.25ZM30.175 58.9167C27.5825 58.9167 25.4575 61.2312 25.9675 63.7562C28.2625 75.3712 38.59 84.1666 51 84.1666C63.41 84.1666 73.7375 75.3712 76.0325 63.7562C76.5425 61.2312 74.4175 58.9167 71.825 58.9167C69.7425 58.9167 68.085 60.3896 67.66 62.4096C66.0025 70.0266 59.2025 75.75 51 75.75C42.7975 75.75 35.9975 70.0266 34.3825 62.4096C33.9575 60.3896 32.2575 58.9167 30.175 58.9167Z" fill="#FFC700"/>
</svg>
